<svg xmlns="http://www.w3.org/2000/svg" viewBox="0 0 145.5 25"><defs><style>.cls-1{fill:#fff;stroke:#000;stroke-miterlimit:10;}.cls-2{font-size:17.18px;font-family:PTMono-Regular, PT Mono;}</style></defs><g id="Layer_2" data-name="Layer 2"><g id="Layer_1-2" data-name="Layer 1"><path class="cls-1" d="M102,7.51h16.34c3.71,0,3.42-2.61,3.42-2.61s.29,2.61-3.42,2.61H97.42C93.71,7.51,94,4.9,94,4.9s-.18-2.39,3.41-2.39h20.87c3.54,0,3.42,2.39,3.42,2.39"/><text class="cls-2" transform="translate(0 20.6)">moonstripe</text><circle cx="117.5" cy="12.5" r="12.5"/><path class="cls-1" d="M118.42,22.86h16.34c3.71,0,3.41-2.61,3.41-2.61s.3,2.61-3.41,2.61H113.88c-3.71,0-3.41-2.61-3.41-2.61s-.18-2.39,3.41-2.39h20.88c3.54,0,3.41,2.39,3.41,2.39"/><path class="cls-1" d="M125.24,15.19h16.34c3.71,0,3.41-2.62,3.41-2.62s.3,2.62-3.41,2.62H120.71c-3.71,0-3.42-2.62-3.42-2.62s-.17-2.38,3.42-2.38h20.87c3.54,0,3.41,2.38,3.41,2.38"/></g></g></svg>